<svg width="143" height="42" viewBox="0 0 143 42" fill="none" xmlns="http://www.w3.org/2000/svg">
<rect x="0.534614" y="0.367378" width="141.492" height="41.2651" rx="3.3064" fill="black" stroke="#A6A6A6" stroke-width="0.734756"/>
<path d="M39.0062 20.3175C38.9828 17.5299 41.2876 16.175 41.3889 16.1128C40.0807 14.2128 38.0562 13.9481 37.3476 13.9247C35.6502 13.7456 33.9994 14.9448 33.1351 14.9448C32.2552 14.9448 30.9159 13.9481 29.4832 13.9714C27.6378 14.0026 25.9014 15.0694 24.9592 16.7357C23.0048 20.1228 24.4609 25.1062 26.3374 27.8471C27.2796 29.1864 28.3697 30.6892 29.8102 30.6347C31.2118 30.5802 31.7413 29.7392 33.431 29.7392C35.1129 29.7392 35.6034 30.6347 37.0673 30.6035C38.5779 30.5802 39.5201 29.2565 40.4311 27.9016C41.5134 26.3677 41.9495 24.8493 41.9651 24.7714C41.9261 24.7558 39.0373 23.6501 39.0062 20.3175Z" fill="white"/>
<path d="M36.2425 12.1258C36.9978 11.1836 37.5117 9.89884 37.3716 8.5907C36.2814 8.63742 34.911 9.34599 34.1246 10.2726C33.4316 11.0902 32.8086 12.4217 32.9644 13.6753C34.1946 13.7688 35.4561 13.0524 36.2425 12.1258Z" fill="white"/>
<path d="M59.3448 30.4398H57.3826L56.308 27.0605H52.5705L51.5504 30.4398H49.6427L53.3413 18.9391H55.6306L59.3448 30.4398ZM55.9888 25.6433L55.0155 22.6455C54.9142 22.334 54.7196 21.6177 54.4393 20.4808H54.4003C54.2835 20.9714 54.1044 21.6955 53.8553 22.6455L52.8975 25.6433H55.9888Z" fill="white"/>
<path d="M68.8523 26.196C68.8523 27.6054 68.4707 28.7189 67.6999 29.5365C67.0146 30.2684 66.1581 30.6266 65.1459 30.6266C64.048 30.6266 63.2615 30.2373 62.7787 29.4508V33.8035H60.9333V24.8723C60.9333 23.9846 60.91 23.0814 60.8633 22.147H62.4829L62.5841 23.4629H62.6152C63.2304 22.474 64.1648 21.9757 65.4106 21.9757C66.3917 21.9757 67.2015 22.365 67.8556 23.1359C68.5252 23.9146 68.8523 24.9268 68.8523 26.196ZM66.9757 26.2583C66.9757 25.4485 66.7966 24.7867 66.4306 24.265C66.0335 23.7199 65.4963 23.4474 64.8266 23.4474C64.375 23.4474 63.9623 23.6031 63.5885 23.899C63.2226 24.2027 62.9734 24.592 62.8644 25.0825C62.8099 25.3084 62.7787 25.4952 62.7787 25.6432V27.0292C62.7787 27.6288 62.9656 28.1427 63.3316 28.5554C63.6976 28.968 64.1803 29.1783 64.7721 29.1783C65.4651 29.1783 66.0024 28.9057 66.3917 28.3763C66.781 27.839 66.9757 27.1382 66.9757 26.2583Z" fill="white"/>
<path d="M78.3829 26.196C78.3829 27.6054 78.0014 28.7189 77.2305 29.5365C76.5453 30.2684 75.6888 30.6266 74.6765 30.6266C73.5786 30.6266 72.7922 30.2373 72.3094 29.4508V33.8035H70.464V24.8723C70.464 23.9846 70.4406 23.0814 70.3939 22.147H72.0135L72.1148 23.4629H72.1459C72.761 22.474 73.6954 21.9757 74.9413 21.9757C75.9224 21.9757 76.7322 22.365 77.3863 23.1359C78.0559 23.9146 78.3829 24.9268 78.3829 26.196ZM76.5064 26.2583C76.5064 25.4485 76.3273 24.7867 75.9613 24.265C75.5642 23.7199 75.0269 23.4474 74.3573 23.4474C73.9057 23.4474 73.493 23.6031 73.1192 23.899C72.7532 24.2027 72.5119 24.592 72.3951 25.0825C72.3406 25.3084 72.3094 25.4952 72.3094 25.6432V27.0292C72.3094 27.6288 72.4963 28.1427 72.8623 28.5554C73.2282 28.968 73.711 29.1783 74.3028 29.1783C74.9958 29.1783 75.5408 28.9057 75.9224 28.3763C76.3195 27.839 76.5064 27.1382 76.5064 26.2583Z" fill="white"/>
<path d="M89.0502 27.2164C89.0502 28.1975 88.7076 28.9917 88.0302 29.6069C87.2827 30.2765 86.2393 30.6113 84.9 30.6113C83.6619 30.6113 82.673 30.3699 81.9255 29.895L82.3538 28.361C83.1636 28.836 84.0513 29.0774 85.0168 29.0774C85.7098 29.0774 86.2549 28.9216 86.6364 28.6102C87.0257 28.2987 87.2204 27.8782 87.2204 27.3565C87.2204 26.8894 87.0569 26.5 86.7454 26.1808C86.4262 25.8615 85.8967 25.5656 85.157 25.2931C83.1247 24.5378 82.1202 23.4399 82.1202 21.9994C82.1202 21.0572 82.4784 20.2863 83.187 19.679C83.8955 19.0794 84.8377 18.7758 86.0135 18.7758C87.0569 18.7758 87.929 18.9548 88.622 19.3208L88.1548 20.8158C87.5007 20.4654 86.7688 20.2864 85.9434 20.2864C85.2971 20.2864 84.7832 20.4499 84.4172 20.7613C84.1136 21.0494 83.9578 21.392 83.9578 21.8047C83.9578 22.2564 84.1369 22.6379 84.4873 22.926C84.791 23.1985 85.3516 23.4944 86.1614 23.8137C87.1503 24.2108 87.8745 24.678 88.3417 25.2152C88.8166 25.7525 89.0502 26.4222 89.0502 27.2164Z" fill="white"/>
<path d="M95.1553 23.5333H93.123V27.559C93.123 28.579 93.4812 29.0929 94.1976 29.0929C94.5246 29.0929 94.7971 29.0618 95.0152 29.0073L95.0697 30.4088C94.7037 30.5412 94.2287 30.6113 93.6369 30.6113C92.905 30.6113 92.3444 30.3855 91.9317 29.9417C91.519 29.4978 91.3165 28.7503 91.3165 27.7069V23.5255H90.1096V22.1473H91.3165V20.6289L93.123 20.0839V22.1473H95.1553V23.5333Z" fill="white"/>
<path d="M104.297 26.2272C104.297 27.5042 103.931 28.5476 103.207 29.3652C102.444 30.2061 101.432 30.6266 100.17 30.6266C98.9554 30.6266 97.9821 30.2217 97.2579 29.4197C96.5338 28.6177 96.1756 27.5976 96.1756 26.3674C96.1756 25.0826 96.5494 24.0314 97.2891 23.2138C98.0366 22.3962 99.0411 21.9835 100.302 21.9835C101.517 21.9835 102.498 22.3884 103.238 23.1982C103.947 23.9769 104.297 24.9891 104.297 26.2272ZM102.389 26.2661C102.389 25.503 102.226 24.8568 101.899 24.3117C101.509 23.6498 100.957 23.3228 100.24 23.3228C99.5005 23.3228 98.932 23.6498 98.5505 24.3117C98.2157 24.8568 98.0599 25.5186 98.0599 26.3051C98.0599 27.0681 98.2235 27.7222 98.5505 28.2595C98.9476 28.9213 99.5082 29.2484 100.225 29.2484C100.925 29.2484 101.478 28.9136 101.883 28.2439C102.218 27.6833 102.389 27.0292 102.389 26.2661Z" fill="white"/>
<path d="M110.292 23.7666C110.113 23.7355 109.918 23.7199 109.708 23.7199C109.062 23.7199 108.556 23.9613 108.205 24.4518C107.902 24.8801 107.746 25.4329 107.746 26.087V30.4397H105.901V24.7555C105.901 23.7978 105.885 22.9257 105.846 22.147H107.45L107.52 23.7355H107.575C107.769 23.1904 108.073 22.7466 108.494 22.4195C108.906 22.1237 109.35 21.9757 109.825 21.9757C109.996 21.9757 110.152 21.9913 110.284 22.0069L110.292 23.7666Z" fill="white"/>
<path d="M118.53 25.9002C118.53 26.2272 118.507 26.5075 118.46 26.7333H112.932C112.955 27.5509 113.22 28.1816 113.734 28.6099C114.201 28.9914 114.801 29.1861 115.54 29.1861C116.358 29.1861 117.105 29.0537 117.775 28.7968L118.063 30.0738C117.277 30.4164 116.35 30.5877 115.283 30.5877C113.999 30.5877 112.986 30.2061 112.254 29.4509C111.522 28.6956 111.156 27.6755 111.156 26.4063C111.156 25.1605 111.499 24.1171 112.184 23.2839C112.901 22.3962 113.866 21.9524 115.081 21.9524C116.272 21.9524 117.183 22.3962 117.791 23.2839C118.281 24.0003 118.53 24.8646 118.53 25.9002ZM116.771 25.4252C116.786 24.8801 116.662 24.4052 116.412 24.008C116.093 23.4941 115.603 23.2372 114.948 23.2372C114.349 23.2372 113.858 23.4863 113.485 23.9847C113.181 24.3818 112.994 24.8646 112.94 25.4174L116.771 25.4252Z" fill="white"/>
<path d="M55.1015 14.8277H54.136L53.6065 13.1692H51.7689L51.2628 14.8277H50.3284L52.1426 9.17468H53.2639L55.1015 14.8277ZM53.443 12.4684L52.968 10.989C52.9213 10.841 52.8279 10.4828 52.6799 9.92219H52.6643C52.602 10.1636 52.5242 10.514 52.3918 10.989L51.9246 12.4684H53.443Z" fill="white"/>
<path d="M59.6483 10.7477L58.1066 14.8278H57.2267L55.7317 10.7477H56.705L57.398 12.9046C57.5148 13.2627 57.616 13.6053 57.6939 13.9324H57.7172C57.7873 13.6365 57.8885 13.2939 58.0131 12.9046L58.6983 10.7477H59.6483Z" fill="white"/>
<path d="M62.9342 14.8277L62.8641 14.3605H62.8408C62.5605 14.7343 62.1634 14.9212 61.6494 14.9212C60.9175 14.9212 60.4036 14.4073 60.4036 13.722C60.4036 12.7176 61.2757 12.1959 62.7863 12.1959V12.118C62.7863 11.5807 62.4982 11.316 61.9375 11.316C61.5326 11.316 61.1823 11.4172 60.8708 11.6197L60.6839 11.0279C61.0577 10.7943 61.5326 10.6775 62.0855 10.6775C63.1523 10.6775 63.6895 11.2381 63.6895 12.3672V13.87C63.6895 14.2827 63.7051 14.6019 63.7518 14.8433L62.9342 14.8277ZM62.8096 12.7954C61.8052 12.7954 61.299 13.0368 61.299 13.6208C61.299 14.0491 61.556 14.2593 61.922 14.2593C62.3814 14.2593 62.8096 13.9089 62.8096 13.4261V12.7954Z" fill="white"/>
<path d="M65.7067 10.0779C65.403 10.0779 65.1694 9.84434 65.1694 9.53288C65.1694 9.22142 65.4108 8.99561 65.7222 8.99561C66.0337 8.99561 66.2829 9.22142 66.2751 9.53288C66.2751 9.85991 66.0415 10.0779 65.7067 10.0779ZM65.2706 10.7476H66.1739V14.82H65.2706V10.7476Z" fill="white"/>
<path d="M67.7854 8.87866H68.6886V14.8198H67.7854V8.87866Z" fill="white"/>
<path d="M72.5353 14.8278L72.4652 14.3606H72.4418C72.1615 14.7344 71.7644 14.9213 71.2505 14.9213C70.5186 14.9213 70.0046 14.4074 70.0046 13.7221C70.0046 12.7177 70.8767 12.196 72.3873 12.196V12.1181C72.3873 11.5808 72.0992 11.3161 71.5386 11.3161C71.1337 11.3161 70.7833 11.4173 70.4718 11.6198L70.285 11.0202C70.6587 10.7866 71.1337 10.6698 71.6865 10.6698C72.7533 10.6698 73.2906 11.2304 73.2906 12.3595V13.8623C73.2906 14.275 73.3061 14.5942 73.3451 14.8356H72.5353V14.8278ZM72.4107 12.7955C71.4062 12.7955 70.9001 13.0369 70.9001 13.6209C70.9001 14.0492 71.1571 14.2594 71.523 14.2594C71.9824 14.2594 72.4107 13.909 72.4107 13.4262V12.7955Z" fill="white"/>
<path d="M76.9654 14.921C76.3892 14.921 75.9609 14.6797 75.6806 14.1969H75.665L75.6105 14.8276H74.8396C74.863 14.5006 74.8708 14.1346 74.8708 13.7297V8.87866H75.7818V11.347H75.7974C76.0699 10.8954 76.4982 10.6696 77.0977 10.6696C78.0788 10.6696 78.7641 11.5105 78.7641 12.733C78.7641 13.9944 78.001 14.921 76.9654 14.921ZM76.7785 11.3781C76.2568 11.3781 75.7818 11.8298 75.7818 12.4605V13.1768C75.7818 13.7375 76.2101 14.1969 76.7629 14.1969C77.4403 14.1969 77.8452 13.644 77.8452 12.7642C77.8452 11.9388 77.4248 11.3781 76.7785 11.3781Z" fill="white"/>
<path d="M80.1038 8.87866H81.0071V14.8198H80.1038V8.87866Z" fill="white"/>
<path d="M85.9357 13.0058H83.2182C83.2337 13.7767 83.7477 14.2128 84.5029 14.2128C84.9078 14.2128 85.2738 14.1427 85.6009 14.0181L85.741 14.6488C85.3595 14.8201 84.9078 14.898 84.3784 14.898C83.1014 14.898 82.3461 14.096 82.3461 12.8423C82.3461 11.5965 83.1169 10.6543 84.2771 10.6543C85.3128 10.6543 85.9746 11.4252 85.9746 12.5932C85.9746 12.7567 85.9668 12.8968 85.9357 13.0058ZM85.1103 12.3596C85.1103 11.7288 84.7911 11.285 84.2148 11.285C83.6931 11.285 83.2882 11.7366 83.226 12.3596H85.1103Z" fill="white"/>
<path d="M91.4252 14.9213C90.2338 14.9213 89.463 14.0336 89.463 12.8267C89.463 11.5653 90.2494 10.6698 91.4952 10.6698C92.671 10.6698 93.4575 11.5185 93.4575 12.7566C93.4575 14.0258 92.6477 14.9213 91.4252 14.9213ZM91.4641 11.3317C90.81 11.3317 90.3896 11.9468 90.3896 12.7955C90.3896 13.6365 90.8178 14.2438 91.4563 14.2438C92.0948 14.2438 92.5231 13.5898 92.5231 12.7722C92.5153 11.9468 92.1026 11.3317 91.4641 11.3317Z" fill="white"/>
<path d="M98.3241 14.8278H97.4209V12.484C97.4209 11.7599 97.1406 11.4017 96.5955 11.4017C96.0582 11.4017 95.6923 11.8611 95.6923 12.3984V14.82H94.789V11.9156C94.789 11.5574 94.7812 11.1681 94.7579 10.7476H95.5521L95.591 11.3784H95.6144C95.8558 10.9423 96.3541 10.662 96.907 10.662C97.7635 10.662 98.3241 11.3161 98.3241 12.3828V14.8278Z" fill="white"/>
<path d="M104.25 11.4328H103.253V13.4106C103.253 13.9167 103.432 14.1659 103.783 14.1659C103.938 14.1659 104.078 14.1503 104.187 14.127L104.211 14.8122C104.032 14.8823 103.798 14.9134 103.51 14.9134C102.794 14.9134 102.373 14.5163 102.373 13.4885V11.4328H101.781V10.7554H102.373V10.0079L103.261 9.73535V10.7476H104.257V11.4328" fill="white"/>
<path d="M109.047 14.8276H108.143V12.4994C108.143 11.7675 107.863 11.4015 107.318 11.4015C106.851 11.4015 106.415 11.7208 106.415 12.367V14.8198H105.511V8.87866H106.415V11.3236H106.43C106.718 10.8798 107.123 10.6618 107.653 10.6618C108.517 10.6618 109.047 11.3314 109.047 12.3982V14.8276Z" fill="white"/>
<path d="M113.672 13.0058H110.954C110.97 13.7767 111.484 14.2128 112.239 14.2128C112.644 14.2128 113.01 14.1427 113.337 14.0181L113.477 14.6488C113.096 14.8201 112.644 14.898 112.115 14.898C110.838 14.898 110.082 14.096 110.082 12.8423C110.082 11.5965 110.853 10.6543 112.013 10.6543C113.049 10.6543 113.711 11.4252 113.711 12.5932C113.711 12.7567 113.703 12.8968 113.672 13.0058ZM112.847 12.3596C112.847 11.7288 112.527 11.285 111.951 11.285C111.429 11.285 111.017 11.7366 110.962 12.3596H112.847Z" fill="white"/>
</svg>
