<svg width="264" height="36" viewBox="0 0 264 36" fill="none" xmlns="http://www.w3.org/2000/svg">
<path d="M95.6193 11.322C95.6193 5.55061 90.9167 0.848022 85.1454 0.848022H67.6888V35.0487H75.4552V21.7959H81.6541L89.2067 35.0487H97.8281L89.6342 20.7271C93.3393 19.0171 95.6193 15.312 95.6193 11.322ZM83.5778 15.1695H75.3839V7.47439H83.7203C86.2854 7.6169 87.9242 9.11318 87.9242 11.322C87.8529 13.5308 86.1429 15.0983 83.5778 15.1695ZM54.0085 0.919273H61.9887V21.5109C61.9887 30.4886 56.4311 35.9037 47.0971 35.9037C37.7632 35.9037 32.2056 30.5598 32.2056 21.5109V0.919273H40.1858V21.0122C40.1858 25.8572 42.7508 28.636 47.0971 28.636C51.5147 28.636 54.0798 25.8572 54.0798 21.0122V0.919273H54.0085ZM142.289 28.2085H160.743V35.0487H134.38V0.848022H159.888V7.40315H142.36V14.2433H157.751V20.9409H142.36V28.2085H142.289ZM21.6604 16.0958C24.083 14.5995 25.5792 11.9632 25.5792 9.11318C25.5792 4.62434 21.9454 0.919274 17.3853 0.848022H0V35.0487H18.8816C24.2255 35.0487 28.5005 30.7023 28.5005 25.3585C28.5005 21.5822 26.2917 17.6633 21.6604 16.0958ZM7.83765 7.26064H14.2503C16.1741 7.26064 17.8128 8.89942 17.8128 10.8232C17.8128 12.8182 16.2453 14.3858 14.2503 14.3858H7.83765V7.26064ZM16.6016 28.636H7.83765V20.6559H16.5303C19.3804 20.6559 20.7341 22.9359 20.7341 24.5747C20.7341 26.641 19.3091 28.636 16.6016 28.636ZM193.946 11.322C193.946 5.55061 189.244 0.848022 183.472 0.848022H166.016V35.0487H173.782V21.7959H179.981L187.534 35.0487H196.155L187.961 20.7271C191.595 19.0171 193.946 15.312 193.946 11.322ZM181.833 15.1695H173.64V7.47439H181.976C184.541 7.6169 186.18 9.11318 186.18 11.322C186.18 13.5308 184.398 15.0983 181.833 15.1695ZM123.194 16.0958C125.616 14.5995 127.112 11.9632 127.112 9.11318C127.112 4.62434 123.479 0.919274 118.919 0.848022H101.533V35.0487H120.415C125.759 35.0487 130.034 30.7023 130.034 25.3585C130.034 21.5822 127.754 17.6633 123.194 16.0958ZM109.371 7.26064H115.783C117.707 7.26064 119.346 8.89942 119.346 10.8232C119.346 12.8182 117.778 14.3858 115.783 14.3858H109.371V7.26064ZM118.063 28.636H109.371V20.6559H118.063C120.914 20.6559 122.267 22.9359 122.267 24.5747C122.267 26.641 120.842 28.636 118.063 28.636ZM263.345 0.848022L249.736 21.0834V34.9774H241.328V21.0834L227.791 0.848022H237.766L245.603 12.6045L253.441 0.848022H263.345ZM227.719 11.322C227.719 5.55061 223.017 0.848022 217.245 0.848022H199.789V35.0487H207.555V21.7959H213.754L221.307 35.0487H229.999L221.805 20.7271C225.439 19.0171 227.719 15.312 227.719 11.322ZM215.607 15.1695H207.413V7.47439H215.749C218.314 7.6169 219.953 9.11318 219.953 11.322C219.953 13.5308 218.243 15.0983 215.607 15.1695Z" fill="#A7A7A7"/>
</svg>
