<svg width="205" height="37" viewBox="0 0 205 37" fill="none" xmlns="http://www.w3.org/2000/svg">
<path d="M103.971 5.15973C104.089 5.80661 104.089 6.45349 104.089 7.10036C104.089 15.0393 104.089 23.0371 104.089 30.9761C104.089 33.446 103.207 35.3866 100.913 36.3863C98.4432 37.4448 96.0909 37.0332 94.0914 35.2102C92.8565 34.0928 91.9156 32.6815 90.857 31.3289C88.0931 27.8005 85.0939 24.3897 82.7417 20.5084C82.8005 20.4496 82.7417 20.4496 82.6828 20.3908C82.5652 20.5672 82.624 20.8024 82.624 20.9788C82.624 24.0956 82.624 27.1536 82.624 30.2116C82.624 31.0937 82.5064 31.917 82.2712 32.7403C81.5067 35.3866 79.272 36.9744 76.5081 36.798C73.0973 36.5627 71.1566 34.5045 70.9214 30.9173C70.8626 30.5644 70.8626 30.2116 70.8626 29.8587C70.8626 21.9198 70.8626 13.9808 70.8626 6.04183C70.8626 3.57193 71.8035 1.6313 74.1558 0.631579C76.5669 -0.368143 78.8604 -0.0152998 80.8598 1.80772C81.9184 2.74864 82.6828 4.04239 83.5649 5.21854C86.2113 8.80577 89.034 12.3342 91.5039 16.0979C91.7391 16.5095 91.9744 16.8623 92.386 17.2152C92.386 17.0388 92.386 16.8035 92.386 16.6271C92.386 13.3339 92.386 10.0407 92.386 6.74753C92.386 5.39496 92.6213 4.04239 93.3269 2.86625C94.6207 0.690387 96.6201 -0.0152981 98.9724 0.21993C101.736 0.455159 103.618 2.33699 103.971 5.15973ZM189.829 4.1012C189.241 2.10176 187.948 0.690387 185.831 0.278737C183.596 -0.132913 181.538 0.161122 179.95 2.04295C178.891 3.33671 178.538 4.8657 178.538 6.45349C178.538 9.8055 178.538 13.2163 178.538 16.5683C178.538 16.8035 178.538 16.98 178.538 17.3916C178.127 16.6859 177.833 16.2155 177.48 15.6862C174.422 11.2169 171.129 6.98275 167.894 2.63102C167.483 2.10176 166.953 1.6313 166.365 1.21965C164.307 -0.132914 162.19 -0.250526 160.014 0.749196C158.074 1.69011 157.074 3.33671 157.074 5.45377C157.015 13.8044 157.074 22.2138 157.074 30.5644C157.074 30.7408 157.133 30.9761 157.133 31.1525C157.368 34.5045 159.367 36.6215 162.661 36.8568C164.954 37.0332 167.071 35.8571 168.071 33.8576C168.482 32.9755 168.776 32.0934 168.776 31.1525C168.776 27.7417 168.835 24.4485 168.835 21.0965C168.835 20.92 168.835 20.6848 168.835 20.4496C168.894 20.4496 168.894 20.4496 168.835 20.4496C169.188 21.0377 169.482 21.5669 169.894 22.0962C172.893 26.3891 176.304 30.3292 179.479 34.4457C179.715 34.7397 180.067 35.0926 180.362 35.3278C182.361 36.9744 184.654 37.2684 187.007 36.2687C189.3 35.269 190.182 33.3283 190.182 30.9173C190.182 22.9783 190.182 14.9805 190.182 6.98275C190.182 6.04184 190.123 5.04211 189.829 4.1012ZM31.8147 11.9225C34.1669 18.4501 33.4025 24.6837 28.7567 30.1528C25.934 33.5048 22.1115 35.269 17.8186 35.8571C13.8785 36.4451 9.8796 36.0335 5.88072 36.0923C5.70429 36.0923 5.46907 36.0335 5.29264 35.9747C2.17587 35.4454 0 32.8579 0 29.7411C0 22.2138 0 14.6865 0 7.21798C0 3.68955 2.70513 0.866809 6.29236 0.808002C7.88016 0.808002 9.46795 0.808002 11.291 0.808002C13.3492 0.866809 15.7015 0.63158 18.0538 1.10204C24.5226 2.33699 29.5212 5.57138 31.8147 11.9225ZM21.2882 18.509C21.347 15.2158 19.1711 12.6282 15.8779 12.2166C14.643 12.0402 13.4668 12.1578 12.2319 12.099C11.7614 12.0402 11.6438 12.2166 11.6438 12.687C11.7026 14.6277 11.7026 16.5683 11.7026 18.509C11.7026 20.4496 11.7026 22.3902 11.7026 24.3309C11.7026 24.6249 11.6438 24.8601 12.1143 24.8601C13.3492 24.8013 14.5842 24.9189 15.8191 24.7425C19.0535 24.3309 21.2294 21.9198 21.2882 18.509ZM129.435 18.7442C129.14 18.3913 129.14 18.2149 129.435 17.8621C131.493 15.5098 133.551 13.1575 135.55 10.7464C136.55 9.51145 137.197 8.1589 137.315 6.5711C137.55 3.10148 134.257 -0.0741062 130.787 0.278737C128.788 0.455158 127.376 1.5725 126.2 3.10148C124.142 5.80661 121.966 8.39412 119.849 11.0992C119.849 9.33504 119.908 7.57083 119.908 5.86542C119.79 2.45461 117.379 0.161125 114.086 0.102318C110.734 0.102318 108.264 2.45461 108.205 5.86542C108.146 14.2748 108.146 22.6843 108.205 31.0937C108.205 34.4457 110.675 36.8568 114.027 36.8568C117.32 36.9156 119.731 34.5045 119.849 31.0937C119.967 29.3883 119.908 27.7417 119.908 26.0363C119.908 25.8598 119.79 25.6834 120.025 25.5658C120.143 25.7422 120.202 25.8598 120.319 25.9775C122.554 28.859 124.906 31.6229 127.2 34.4457C128.023 35.4454 128.964 36.1511 130.199 36.5039C133.727 37.5625 137.609 34.5633 137.726 30.7408C137.785 28.9178 137.138 27.4476 135.962 26.0951C133.786 23.684 131.61 21.1553 129.435 18.7442ZM66.9225 15.0981C66.9225 11.7461 66.9225 8.9822 66.8637 6.15945C66.8637 5.63019 66.8637 5.15973 66.7461 4.68927C66.0992 1.69011 63.4529 -0.191718 60.3949 0.102318C57.2782 0.455161 55.1611 2.80745 55.1611 5.98303C55.1611 10.8052 55.1611 15.6862 55.1611 20.5084C55.1611 20.8612 55.1611 21.2141 55.1023 21.5669C54.8083 24.3309 52.1619 26.0363 49.7508 24.8013C48.2219 24.0368 47.6338 22.6843 47.6338 21.0377C47.6338 16.0979 47.6338 11.0993 47.6338 6.15945C47.6338 2.57222 45.2227 0.102314 41.8119 0.0435072C38.4011 0.0435072 35.99 2.51341 35.9312 6.04183C35.8724 11.2757 35.9312 16.5095 35.9312 21.8021C35.99 22.5666 35.99 23.2723 36.1076 23.978C36.9309 29.5059 39.8124 33.5048 45.0463 35.6218C47.9866 36.8568 51.0446 37.0332 54.1614 36.6215C61.2182 35.7394 66.4521 30.1528 66.8637 23.0959C67.0401 20.2732 66.8637 17.3916 66.9225 15.0981ZM151.193 1.5725C149.253 -0.132911 147.018 -0.426949 144.666 0.572772C142.431 1.57249 141.431 3.45433 141.372 5.86542C141.314 10.0407 141.372 14.216 141.372 18.3913C141.372 22.6843 141.372 26.8596 141.314 31.0937C141.314 34.3869 143.725 36.6804 147.077 36.798C150.252 36.9156 152.899 34.5045 152.957 31.2701C153.016 22.6843 153.016 14.0984 152.957 5.51257C152.957 3.98359 152.369 2.57222 151.193 1.5725Z" fill="#A7A7A7"/>
<path d="M193.828 8.57051C193.77 7.15914 193.828 5.74777 194.122 4.3364C194.769 1.39604 197.239 -0.25056 200.238 0.219897C203.12 0.690354 205.002 3.04264 204.708 5.983C204.473 8.39409 203.767 10.7464 202.826 12.981C202.238 14.2748 201.415 15.3333 200.003 15.8038C197.71 16.5683 195.299 15.4509 194.475 13.1575C193.887 11.6873 193.828 10.0995 193.828 8.57051Z" fill="#A7A7A7"/>
</svg>
