<svg width="145" height="34" viewBox="0 0 145 34" fill="none" xmlns="http://www.w3.org/2000/svg">
<path fill-rule="evenodd" clip-rule="evenodd" d="M61.7805 0.772095C52.862 0.772095 45.6319 8.00219 45.6319 16.9208C45.6319 25.8393 52.862 33.0694 61.7805 33.0694C70.6991 33.0694 77.9292 25.8393 77.9292 16.9208C77.9725 8.00219 70.7424 0.772095 61.7805 0.772095ZM61.7805 27.1814C56.109 27.1814 51.5199 22.5923 51.5199 16.9208C51.5199 11.2492 56.109 6.66008 61.7805 6.66008C67.452 6.66008 72.0412 11.2492 72.0412 16.9208C72.0412 22.5923 67.452 27.1814 61.7805 27.1814ZM103.04 6.66008H97.5847V30.0388C97.5847 31.684 96.2858 32.9828 94.6407 32.9828C92.9955 32.9828 91.6967 31.684 91.6967 30.0388V6.66008H87.4539V30.0388C87.4539 31.684 86.155 32.9828 84.5099 32.9828C82.8647 32.9828 81.5659 31.684 81.5659 30.0388V6.66008H76.6737C75.0285 6.66008 73.7297 5.36126 73.7297 3.71609C73.7297 2.07092 75.0285 0.772095 76.6737 0.772095H102.996C104.642 0.772095 105.94 2.07092 105.94 3.71609C105.984 5.31797 104.642 6.66008 103.04 6.66008ZM144.299 3.71609V30.0388C144.299 31.684 143 32.9828 141.355 32.9828C139.71 32.9828 138.411 31.684 138.411 30.0388V12.9377V13.1542L125.769 31.2944C124.86 32.6365 123.128 33.0694 122.176 33.1127C114.036 33.1127 107.326 27.0948 106.2 19.3019V30.0388C106.2 31.684 104.901 32.9828 103.256 32.9828C101.611 32.9828 100.312 31.684 100.312 30.0388V11.9852C100.312 10.3401 101.611 9.04125 103.256 9.04125C104.901 9.04125 106.2 10.3401 106.2 11.9852V14.5829C107.326 6.74666 114.036 0.772095 122.176 0.772095C125.033 0.772095 127.761 1.55139 130.098 2.85021C130.878 3.36974 131.441 4.27891 131.441 5.31796C131.441 6.96314 130.142 8.26196 128.497 8.26196C127.934 8.26196 127.458 8.13207 127.025 7.87231C125.596 7.09301 123.994 6.70337 122.219 6.70337C116.547 6.70337 111.958 11.2925 111.958 16.964C111.958 22.3325 116.114 26.7485 121.396 27.1814L138.671 2.59044C139.147 1.55139 140.143 0.815388 141.355 0.815388C143 0.772094 144.299 2.07092 144.299 3.71609ZM48.6624 28.1772C49.7015 29.4327 49.485 31.2944 48.2295 32.3334C46.974 33.3725 45.1123 33.156 44.0733 31.9005L35.5877 21.38L27.102 31.9005C26.063 33.156 24.2446 33.3725 22.9458 32.3334C21.6903 31.2944 21.4738 29.476 22.5129 28.1772L31.8211 16.7043L28.0545 12.0718V14.7561C28.0545 20.341 23.5519 24.8436 17.967 24.8436C12.3821 24.8436 7.87951 20.341 7.87951 14.7561V3.71609C7.87951 2.07092 9.17833 0.772095 10.8235 0.772095C12.4687 0.772095 13.7675 2.07092 13.7675 3.71609V14.7561C13.7675 17.0939 15.6291 18.9556 17.967 18.9556C20.3049 18.9556 22.1665 17.0506 22.1665 14.7561V3.71609C22.1665 2.07092 23.4653 0.772095 25.1105 0.772095C26.1496 0.772095 27.0587 1.33492 27.5783 2.1575L35.5877 12.0285L43.7702 1.94103C44.8093 0.685505 46.6276 0.469035 47.9264 1.50809C49.182 2.54715 49.3984 4.3655 48.3594 5.66432L39.3975 16.7476L48.6624 28.1772ZM20.911 29.9522C20.911 31.5974 19.6122 32.8962 17.967 32.8962H3.5934C3.37693 32.9395 3.16046 32.9828 2.94399 32.9828C1.29882 32.9828 0 31.684 0 30.0388V3.71609C0 2.07092 1.29882 0.772095 2.94399 0.772095C4.58916 0.772095 5.88798 2.07092 5.88798 3.71609V27.0083H17.967C19.6122 27.0083 20.911 28.3071 20.911 29.9522Z" fill="#A7A7A7"/>
</svg>
