<svg width="229" height="38" viewBox="0 0 229 38" fill="none" xmlns="http://www.w3.org/2000/svg">
<path d="M50.5912 14.7452V34.1935C50.5912 35.6553 49.2565 36.7358 47.9854 36.7358H41.2483C39.9136 36.7358 38.8332 35.6553 38.8332 34.1935V14.9358C38.2612 11.5038 36.2274 10.7411 33.8122 10.9318C33.0495 8.77082 32.2868 6.92769 31.0157 5.1481C28.4099 2.60583 28.7912 3.49563 28.0285 2.60583C28.2192 2.60583 29.5539 1.52536 31.397 0.953351C32.8588 0.572011 35.6553 0.381337 37.562 0.572007C42.583 1.27113 44.2991 2.54226 45.7609 3.68628L47.2862 5.1481C50.7818 8.89795 50.5912 13.2834 50.5912 14.7452ZM65.1457 1.4618H58.5993C57.074 1.4618 55.9935 2.54226 55.9935 4.00407V34.13C55.9935 35.5918 57.1375 36.6722 58.5993 36.6722H65.1457C66.671 36.6722 67.7515 35.5918 67.7515 34.13V4.00407C67.7515 2.54226 66.6075 1.4618 65.1457 1.4618ZM102.39 1.4618H95.6529C94.1276 1.4618 93.0471 2.54226 93.0471 4.00407V24.7236C93.0471 27.0752 90.4413 27.4565 90.4413 27.4565V37.6256H94.0004C95.4622 37.4349 97.7503 37.0536 99.5935 35.7824C101.055 34.702 102.581 33.0495 103.725 31.2064C104.487 29.9352 104.678 28.8548 104.869 27.393V3.94051C104.805 2.54226 103.725 1.4618 102.39 1.4618ZM85.1025 25.1049V22.1813L84.9118 4.38541C84.9118 2.92361 83.7678 1.84314 82.4967 1.84314H75.7597C74.2979 1.84314 73.1538 2.92361 73.1538 4.38541V27.8379C73.3445 29.2997 73.5352 30.3801 74.425 31.6513C75.569 33.3037 76.8401 35.0833 78.5562 36.0367C80.3993 37.3078 82.4967 37.8798 83.9585 37.8798H87.5177V27.7108C87.5177 27.6472 85.1025 27.2659 85.1025 25.1049ZM16.0799 0.572007H15.3172C6.92769 0.572007 0.190672 7.30902 0.190672 15.1265L0 34.1935C0 35.6553 1.14403 36.7358 2.60583 36.7358H8.77083C10.2326 36.7358 11.3767 35.6553 11.3767 34.1935V14.9358C11.758 13.474 13.9825 11.6309 15.8256 11.6309C17.4781 11.6309 19.5755 13.474 20.1475 14.9358V34.0029C20.1475 35.4647 21.2915 36.5451 22.5627 36.5451H28.9183C30.253 36.5451 31.3335 35.4647 31.3335 34.0029L31.5242 15.4443C31.5877 7.43613 24.66 0.572007 16.0799 0.572007ZM170.459 4.76676L169.125 3.30494C167.663 2.22447 165.947 0.953355 160.735 0.0635606C159.083 -0.12711 156.286 0.254227 154.761 0.635568C152.918 1.20758 151.392 2.28805 151.202 2.28805C152.155 3.17784 151.583 2.28805 154.189 4.83032C155.651 6.67346 156.413 8.45304 156.985 10.614C159.591 10.4233 161.434 11.186 162.006 14.6181V33.8757C162.006 35.3376 163.277 36.418 164.612 36.418H171.349C172.684 36.418 173.764 35.3376 173.764 33.8757L173.955 14.4274C174.018 12.902 174.146 8.58016 170.459 4.76676ZM188.509 1.14401H181.772C180.438 1.14401 179.357 2.22448 179.357 3.68628V33.8122C179.357 35.274 180.501 36.3545 181.772 36.3545H188.509C189.844 36.3545 190.924 35.274 190.924 33.8122V3.68628C190.924 2.22448 189.844 1.14401 188.509 1.14401ZM225.626 1.14401H218.889C217.618 1.14401 216.474 2.22448 216.474 3.68628V21.6729C216.474 21.8635 216.474 22.7533 216.284 24.4058C216.284 26.7574 213.868 27.1387 213.868 27.1387V37.3078H217.428C218.889 37.1171 220.987 36.6087 222.83 35.4647C224.482 34.3842 226.008 32.7317 227.088 30.9521C227.851 29.681 228.042 28.6005 228.232 27.1387V3.68628C228.232 2.22448 227.088 1.14401 225.626 1.14401ZM208.276 24.7236V3.81341C208.276 2.54227 207.131 1.4618 205.67 1.4618H199.123C197.598 1.4618 196.518 2.54227 196.518 3.81341V27.4565C196.708 28.9183 196.899 29.9988 197.662 31.0793C198.806 32.9224 200.267 34.702 201.92 35.5918C203.763 36.8629 205.86 37.4349 207.322 37.4349H210.881V27.2658C210.881 27.2658 208.466 26.8845 208.276 24.7236ZM139.507 0L138.744 0.190663C130.164 0.190663 123.491 6.92768 123.491 14.7452V33.8122C123.491 35.274 124.635 36.3545 126.097 36.3545H132.262C133.723 36.3545 134.867 35.274 134.867 33.8122L134.677 14.9358L134.867 14.5545C135.249 13.0927 137.473 11.3131 139.126 11.3131C140.778 11.3131 143.066 12.9656 143.384 14.5545L143.575 14.7452L143.384 33.6215C143.384 35.0833 144.528 36.1638 145.99 36.1638H152.155C153.68 36.1638 154.761 35.0833 154.761 33.6215V14.9358C154.761 7.11836 148.087 0 139.507 0Z" fill="#A7A7A7"/>
</svg>
